<?xml version="1.0" encoding="utf-8"?>
<!-- Generator: Adobe Illustrator 21.0.2, SVG Export Plug-In . SVG Version: 6.00 Build 0)  -->
<svg version="1.1" id="Слой_1" xmlns="http://www.w3.org/2000/svg" xmlns:xlink="http://www.w3.org/1999/xlink" x="0px" y="0px"
	 viewBox="0 0 512 512" style="enable-background:new 0 0 512 512;" xml:space="preserve">
<style type="text/css">
	.st0{fill:#4D26F4;}
	.st1{fill:#FFF5E0;}
	.st2{fill:#7D7D7D;}
	.st3{fill:#F2A811;}
	.st4{fill:#D9D9D9;}
</style>
<path class="st0" d="M462.5,231.1c-7.4-11.7-6.5-26.9,2.3-37.7c36.3-44.5,29.6-110-14.8-146.3S339.9,17.5,303.6,62
	c-16,20.3-42.4,29.3-67.4,22.9C163.9,64.9,89,107.2,68.9,179.6c-10.2,36.8-4.5,76.1,15.8,108.4h49.6c22.3,0,44.5-3.6,65.7-10.7
	l88-29.3v48h8c13.3,0,24,10.7,24,24v32c0,13.3-10.7,24-24,24h-8v48l-88-29.3c-11.1-3.7-22.5-6.4-34-8.2
	c36.6,85.1,135.4,124.5,220.5,87.8S511,339,474.3,253.8C471,246,467,238.4,462.5,231.1L462.5,231.1z"/>
<path class="st1" d="M224,240c8.8,0,16-7.2,16-16v-40c0-8.8-7.2-16-16-16h-8c-8.8,0-16-7.2-16-16v-24c0-8.8-7.2-16-16-16
	s-16,7.2-16,16v24c0,8.8-7.2,16-16,16h-8v72H224z"/>
<path class="st2" d="M72,384l9.3,96c0,4.4,3.6,8,8,8H136c4.4,0,8-3.6,8-8c0-0.4,0-0.8-0.1-1.2L120,384H72z"/>
<path class="st3" d="M296,376c13.3,0,24-10.7,24-24v-32c0-13.3-10.7-24-24-24h-8v80H296z"/>
<path class="st2" d="M72,384v-96c-26.5,0-48,21.5-48,48S45.5,384,72,384z"/>
<path class="st3" d="M104,384v-96H84.7H72v96H104z"/>
<path class="st4" d="M200,277.3c-21.2,7.1-43.4,10.7-65.8,10.7H104v96h30.2c22.3,0.1,44.5,3.7,65.8,10.7l88,29.3V248L200,277.3z"/>
<path class="st1" d="M384,192c35.3,0,64-28.7,64-64s-28.7-64-64-64s-64,28.7-64,64S348.7,192,384,192z"/>
<g>
	<path class="st0" d="M368,96v64l48-32L368,96z"/>
	<path class="st0" d="M144,240v-72v-8h-32v88h32V240z"/>
	<path class="st0" d="M427.7,306.7l-13.1,8.7l-13.1-8.7c-6.3-4.2-14.8-3.4-20.2,2l-3.4,3.4c-6.2,6.2-6.3,16.4,0,22.6c0,0,0,0,0,0
		l36.7,36.7l36.7-36.7c6.2-6.2,6.3-16.4,0-22.6c0,0,0,0,0,0l-3.4-3.4C442.5,303.3,434.1,302.5,427.7,306.7L427.7,306.7z"/>
</g>
<path d="M64.7,391.5l8.6,88.5c0,8.8,7.2,16,16,16H136c4.7,0,9.1-2.1,12.1-5.6c3.2-3.8,4.5-8.8,3.5-13.6L130.3,392h4
	c8.8,0,17.7,0.7,26.4,1.9c28.7,62.2,91,102.1,159.6,102.1c5.3,0,10.6-0.2,16-0.7c84.9-8.4,151.8-76,159.2-161
	c3.1-37.7-6.1-75.4-26.2-107.4c-5.6-8.9-4.9-20.3,1.7-28.4c19.8-24.3,28.5-55.8,23.9-86.8c-9-61.2-65.9-103.5-127.1-94.6
	c-27.6,4-52.7,18.2-70.4,39.8c-14,17.8-37.1,25.8-59.1,20.3c-18.5-5.1-37.8-6.5-56.8-4.1c-64.3,8.7-115,58.9-124.3,123.2
	c-4,28.7,0.8,57.9,13.8,83.7c-30.9,0.4-55.6,25.9-55.1,56.7C16.4,364.6,37.1,387.9,64.7,391.5L64.7,391.5z M80,376v-80h16v80H80z
	 M136,480l-46.7-0.8L80.8,392h33L136,480z M112,376v-80h22.2c23.2,0,46.3-3.7,68.3-11.1l37.4-12.5v127.1l-37.4-12.5
	c-22-7.4-45.1-11.1-68.3-11.1L112,376z M280,259.1v153.8l-24-8V267.1L280,259.1z M73.2,198.4c9.7-70,74.2-118.9,144.2-109.2
	c5.6,0.8,11.2,1.9,16.7,3.5c28.1,7.2,57.8-2.8,75.7-25.6c33.5-41.1,93.9-47.2,135-13.7s47.2,93.9,13.7,135
	c-10.9,13.4-12.1,32.3-2.8,47c18.3,29.1,26.6,63.4,23.8,97.7c-7.1,87.9-84.1,153.5-172,146.4c-53.4-4.3-101.1-35.1-127.1-82
	c5.7,1.4,11.5,2.9,17.1,4.8l88,29.3c0.8,0.3,1.7,0.4,2.5,0.4c4.4,0,8-3.6,8-8v-40c17.7,0,32-14.3,32-32v-32c0-17.7-14.3-32-32-32
	v-40c0-4.4-3.6-8-8-8c-0.9,0-1.7,0.1-2.5,0.4l-88,29.3c-20.4,6.8-41.7,10.3-63.2,10.3H89.3C74.9,255.4,69.2,226.6,73.2,198.4
	L73.2,198.4z M296,304c8.8,0,16,7.2,16,16v32c0,8.8-7.2,16-16,16V304z M64,296.8v78.4c-21.6-4.4-35.6-25.5-31.2-47.2
	C36,312.3,48.3,300,64,296.8z"/>
<path d="M128,344h32v16h-32V344z"/>
<path d="M128,312h32v16h-32V312z"/>
<path d="M364.2,167.1c2.6,1.4,5.8,1.2,8.2-0.4l48-32c3.7-2.5,4.7-7.4,2.2-11.1c-0.6-0.9-1.3-1.6-2.2-2.2l-48-32
	c-3.7-2.5-8.6-1.5-11.1,2.2c-0.9,1.3-1.3,2.9-1.3,4.4v64C360,163,361.6,165.7,364.2,167.1z M376,111l25.6,17L376,145V111z"/>
<path d="M384,200c39.8,0,72-32.2,72-72s-32.2-72-72-72s-72,32.2-72,72C312,167.7,344.3,200,384,200z M384,72c30.9,0,56,25.1,56,56
	s-25.1,56-56,56s-56-25.1-56-56C328,97.1,353.1,72,384,72z"/>
<path d="M112,256h32c4.4,0,8-3.6,8-8h72c13.3,0,24-10.7,24-24v-40c0-13.3-10.7-24-24-24h-8c-4.4,0-8-3.6-8-8v-24
	c0-13.3-10.7-24-24-24s-24,10.7-24,24v24c0,4.4-3.6,8-8,8c0-4.4-3.6-8-8-8h-32c-4.4,0-8,3.6-8,8v88C104,252.4,107.6,256,112,256z
	 M176,152v-24c0-4.4,3.6-8,8-8s8,3.6,8,8v24c0,13.3,10.7,24,24,24h8c4.4,0,8,3.6,8,8v40c0,4.4-3.6,8-8,8h-72v-56
	C165.3,176,176,165.3,176,152z M120,168h16v72h-16V168z"/>
<path d="M423.3,300l-8.6,5.8L406,300c-9.5-6.3-22.2-5.1-30.3,3l-3.4,3.4c-9.4,9.4-9.4,24.6,0,33.9L409,377c3.1,3.1,8.2,3.1,11.3,0
	l36.7-36.7c9.4-9.4,9.4-24.6,0-33.9l-3.4-3.4C445.4,294.9,432.8,293.7,423.3,300L423.3,300z M442.2,314.3l3.4,3.4
	c3.1,3.1,3.1,8.2,0,11.3c0,0,0,0,0,0l-31,31l-31-31c-3.1-3.1-3.1-8.2,0-11.3l3.4-3.4c2.7-2.7,6.9-3.1,10.1-1l13.1,8.7
	c2.7,1.8,6.2,1.8,8.9,0l13.1-8.7C435.3,311.2,439.6,311.6,442.2,314.3L442.2,314.3z"/>
<path d="M320.2,262.1l8-32l15.5,3.9l-8,32L320.2,262.1z"/>
<path d="M340.4,272.8l32-16l7.2,14.3l-32,16L340.4,272.8z"/>
<path d="M320.2,417.9l15.5-3.9l8,32l-15.5,3.9L320.2,417.9z"/>
<path d="M340.4,407.2l7.2-14.3l32,16l-7.2,14.3L340.4,407.2z"/>
<path d="M24,232h16c0-108.6,64.4-176,168-176V40C94.5,40,24,113.6,24,232z"/>
</svg>
