<?xml version="1.0" encoding="utf-8"?>
<!-- Generator: Adobe Illustrator 21.0.2, SVG Export Plug-In . SVG Version: 6.00 Build 0)  -->
<svg version="1.1" id="Слой_1" xmlns="http://www.w3.org/2000/svg" xmlns:xlink="http://www.w3.org/1999/xlink" x="0px" y="0px"
	 viewBox="0 0 512 512" style="enable-background:new 0 0 512 512;" xml:space="preserve">
<style type="text/css">
	.st0{fill:#10BDE0;}
	.st1{fill:#4D26F4;}
	.st2{fill:#EBEBEB;}
	.st3{fill:#A1A1A1;}
	.st4{fill:#E39D10;}
</style>
<path class="st0" d="M144,376h80v24h-80V376z"/>
<path class="st0" d="M144,408c0,8.8,7.2,16,16,16h48c8.8,0,16-7.2,16-16v-8h-80V408z"/>
<path class="st1" d="M488,296l-32-40l-32,40H488z"/>
<path class="st2" d="M344,176l-40-40V56h40V24H104v80H24v384h320V176z"/>
<path class="st1" d="M202.5,350.3c-12.2,2.2-24.8,2.2-37,0c-7.3-1.2-14.5-3.2-21.5-5.8V408c0,8.8,7.2,16,16,16h48
	c8.8,0,16-7.2,16-16v-63.5C217.1,347.2,209.9,349.1,202.5,350.3L202.5,350.3z"/>
<path class="st3" d="M344,488h32V208l-32-32V488z"/>
<path class="st3" d="M344,24h32v32h-32V24z"/>
<path class="st1" d="M168,440c0,8.8,7.2,16,16,16s16-7.2,16-16v-16h-32V440z"/>
<path class="st1" d="M304,56v80l104,104l80-80L384,56H304z"/>
<path class="st3" d="M104,24l-80,80h80V24z"/>
<circle class="st1" cx="352" cy="104" r="16"/>
<path class="st2" d="M424,480c0,4.4,3.6,8,8,8h48c4.4,0,8-3.6,8-8V296h-64V480z"/>
<circle class="st4" cx="184" cy="240" r="112"/>
<path d="M304,240c0-66.3-53.7-120-119.9-120.1S64,173.6,64,239.9c0,47.7,28.2,91,72,110.1V408c0,13.3,10.7,24,24,24v8
	c0,13.3,10.7,24,24,24s24-10.7,24-24l0,0v-8c13.3,0,24-10.7,24-24v-58.1C275.7,330.8,303.9,287.7,304,240L304,240z M80,240
	c-0.1-57.4,46.5-104,103.9-104.1c57.4-0.1,104,46.5,104.1,103.9c0,46.7-31,87.6-75.9,100.2l11.8-82.9l-15.8-2.3l-12.6,88.5
	c-7.6,0.9-15.3,0.9-22.9,0l-12.6-88.5l-15.8,2.3l11.8,82.9C111.1,327.4,80.1,286.6,80,240L80,240z M152,384h64v8h-64V384z M192,440
	c0,4.4-3.6,8-8,8s-8-3.6-8-8v-8h16V440z M208,416h-48c-4.4,0-8-3.6-8-8h64C216,412.4,212.4,416,208,416z M216,368h-64v-12.5
	c20.9,6,43.1,6,64,0V368z"/>
<path d="M389.7,50.3c-1.5-1.5-3.5-2.3-5.7-2.3V24c0-4.4-3.6-8-8-8H104v0.1c-2.1,0-4.2,0.8-5.7,2.3l-80,80c-1.5,1.5-2.3,3.5-2.3,5.7
	H16v384c0,4.4,3.6,8,8,8h352c4.4,0,8-3.6,8-8V227.3l18.3,18.3c3.1,3.1,8.2,3.1,11.3,0l80-80c3.1-3.1,3.1-8.2,0-11.3L389.7,50.3z
	 M368,48h-16V32h16V48z M96,43.3V96H43.3L96,43.3z M32,480V112h72c4.4,0,8-3.6,8-8V32h224v16h-32c-4.4,0-8,3.6-8,8v80
	c0,2.1,0.8,4.2,2.3,5.7l37.7,37.7V480H32z M368,480h-16V195.3l16,16V480z M408,228.7l-96-96V64h68.7l96,96L408,228.7z"/>
<path d="M180.4,247.2c2.3,1.1,4.9,1.1,7.2,0l28.4-14.3l28.4,14.3l7.2-14.3l-32-16c-2.3-1.1-4.9-1.1-7.2,0L184,231.1l-28.4-14.2
	c-2.3-1.1-4.9-1.1-7.2,0l-32,16l7.2,14.3l28.4-14.2L180.4,247.2z"/>
<path d="M352,80c-13.3,0-24,10.7-24,24s10.7,24,24,24s24-10.7,24-24S365.3,80,352,80z M352,112c-4.4,0-8-3.6-8-8s3.6-8,8-8
	s8,3.6,8,8S356.4,112,352,112z"/>
<path d="M216,96h64v16h-64V96z"/>
<path d="M256,64h24v16h-24V64z"/>
<path d="M176,64h64v16h-64V64z"/>
<path d="M394.3,186.3l40-40l11.3,11.3l-40,40L394.3,186.3z"/>
<path d="M494.2,291l-32-40c-3-3.5-8.2-3.8-11.7-0.8c-0.3,0.2-0.6,0.5-0.8,0.8l-32,40l0.1,0.1c-1.2,1.4-1.8,3.1-1.8,4.9v184
	c0,8.8,7.2,16,16,16h48c8.8,0,16-7.2,16-16V296C496,294.2,495.3,292.5,494.2,291L494.2,291z M456,268.8l15.4,19.2h-30.7L456,268.8z
	 M432,480V304h48v176H432z"/>
<path d="M256,360h64v16h-64V360z"/>
<path d="M256,392h64v16h-64V392z"/>
<path d="M256,424h64v16h-64V424z"/>
</svg>
