<?xml version="1.0" encoding="utf-8"?>
<!-- Generator: Adobe Illustrator 21.0.2, SVG Export Plug-In . SVG Version: 6.00 Build 0)  -->
<svg version="1.1" id="Слой_1" xmlns="http://www.w3.org/2000/svg" xmlns:xlink="http://www.w3.org/1999/xlink" x="0px" y="0px"
	 viewBox="0 0 512 512" style="enable-background:new 0 0 512 512;" xml:space="preserve">
<style type="text/css">
	.st0{fill:#4D26F4;}
	.st1{fill:#FFF5E0;}
	.st2{fill:#7D7D7D;}
	.st3{fill:#E39D10;}
</style>
<path class="st0" d="M360,72H152v168h208V72z"/>
<path class="st1" d="M440.1,279L376,336h-88l47.8-13c12.9-3.6,20.4-16.9,16.9-29.7s-16.9-20.4-29.7-16.9c-0.4,0.1-0.8,0.2-1.1,0.3
	L240,304H120l-40,40l96,96l56-40h160l87-79.7c5.7-5.3,9-12.7,9-20.5c0-15.3-12.4-27.8-27.8-27.8h-1.7
	C451.8,272,445.2,274.5,440.1,279L440.1,279z"/>
<path class="st0" d="M176,440l-96-96l-16-16l-40,40l120,120l40-40L176,440z"/>
<path class="st2" d="M152,240H24v32h434.6h1.7H488v-32H360H152z"/>
<path class="st3" d="M208,24c0,26.5,21.5,48,48,48C256,45.5,234.5,24,208,24z"/>
<path class="st3" d="M304,24c-26.5,0-48,21.5-48,48C282.5,72,304,50.5,304,24z"/>
<g>
	<path class="st1" d="M256,224l-32-88h-40l72,96l72-96h-40L256,224z"/>
	<path class="st1" d="M256,104l32,32h40l-24-32H256z"/>
	<path class="st1" d="M256,104h-48l-24,32h40L256,104z"/>
	<path class="st1" d="M256,136h32l-32-32l-32,32H256z"/>
	<path class="st1" d="M224,136l32,88l32-88h-32H224z"/>
</g>
<path d="M488,232H368V72c0-4.4-3.6-8-8-8h-64.9C305.9,53.5,312,39.1,312,24c0-4.4-3.6-8-8-8c-19.7,0-37.9,10.4-48,27.3
	C245.9,26.4,227.7,16,208,16c-4.4,0-8,3.6-8,8c0,15.1,6.1,29.5,16.9,40H152c-4.4,0-8,3.6-8,8v160H24c-4.4,0-8,3.6-8,8v32
	c0,4.4,3.6,8,8,8h262.7l-48,16H120c-2.1,0-4.2,0.8-5.7,2.3L80,332.7l-10.3-10.3c-3.1-3.1-8.2-3.1-11.3,0l-40,40
	c-3.1,3.1-3.1,8.2,0,11.3l120,120c3.1,3.1,8.2,3.1,11.3,0l40-40c3.1-3.1,3.1-8.2,0-11.3l-1.3-1.3l46.2-33H392c2,0,3.9-0.8,5.4-2.1
	l87-79.7c13.1-12,15.4-31.8,5.4-46.5c3.6-0.8,6.2-4,6.2-7.6v-32C496,235.6,492.4,232,488,232L488,232z M295,33
	c-3.5,14.9-15.1,26.5-30,30C268.5,48.1,280.1,36.5,295,33z M247,63c-14.9-3.5-26.5-15.1-30-30C231.9,36.5,243.5,48.1,247,63z
	 M160,80h192v152h-86l68.4-91.2c2.1-2.8,2.1-6.8,0-9.6l-24-32c-1.5-2-3.9-3.2-6.4-3.2h-96c-2.5,0-4.9,1.2-6.4,3.2l-24,32
	c-2.1,2.8-2.1,6.8,0,9.6L246,232h-86L160,80z M276.6,144L256,200.6L235.4,144H276.6z M243.3,128l12.7-12.7l12.7,12.7H243.3z
	 M293.6,144H312l-35.7,47.6L293.6,144z M291.3,128l-16-16H300l12,16H291.3z M220.7,128H200l12-16h24.7L220.7,128z M218.4,144
	l17.3,47.6L200,144H218.4z M32,248h448v16H32V248z M427,280l-54,48h-28.4c15.7-8.3,21.7-27.7,13.4-43.4c-0.9-1.6-1.8-3.2-3-4.6H427z
	 M144,476.7L35.3,368L64,339.3L172.7,448L144,476.7z M473.6,314.4L388.9,392H232c-1.7,0-3.3,0.5-4.6,1.5l-50.5,36.1L91.3,344l32-32
	H240c0.9,0,1.7-0.1,2.5-0.4l81.8-27.3c8.5-2.8,17.6,1.7,20.5,10.2c2.8,8.5-1.7,17.6-10.2,20.5c-0.3,0.1-0.6,0.2-0.9,0.3L286.9,328
	H264v16h112c2,0,3.8-0.7,5.3-2l64.1-57c3.6-3.2,8.3-5,13.1-5h1.7c10.9,0,19.8,8.8,19.8,19.7C480.1,305.3,477.7,310.6,473.6,314.4
	L473.6,314.4z"/>
<path d="M50.3,365.7l11.3-11.3l24,24l-11.3,11.3L50.3,365.7z"/>
<path d="M392,48h16v16h-16V48z"/>
<path d="M408,32h16v16h-16V32z"/>
<path d="M424,48h16v16h-16V48z"/>
<path d="M408,64h16v16h-16V64z"/>
<path d="M480,24h16v16h-16V24z"/>
<path d="M416,112h16v16h-16V112z"/>
<path d="M88,104h16v16H88V104z"/>
<path d="M88,136h16v16H88V136z"/>
<path d="M104,120h16v16h-16V120z"/>
<path d="M72,120h16v16H72V120z"/>
<path d="M16,64h16v16H16V64z"/>
<path d="M88,24h16v16H88V24z"/>
</svg>
