<?xml version="1.0" encoding="utf-8"?>
<!-- Generator: Adobe Illustrator 21.0.2, SVG Export Plug-In . SVG Version: 6.00 Build 0)  -->
<svg version="1.1" xmlns="http://www.w3.org/2000/svg" xmlns:xlink="http://www.w3.org/1999/xlink" x="0px" y="0px"
	 viewBox="0 0 550 550" style="enable-background:new 0 0 550 550;" xml:space="preserve">
<style type="text/css">
	.st0{display:none;}
	.st1{fill:url(#SVGID_1_);}
	.st2{fill:url(#SVGID_2_);}
	.st3{fill:url(#SVGID_3_);}
	.st4{fill:url(#SVGID_4_);}
</style>
<g id="Слой_1" class="st0">
</g>
<g id="Слой_2">
	<linearGradient id="SVGID_1_" gradientUnits="userSpaceOnUse" x1="135.9223" y1="442.653" x2="391.8268" y2="139.2249">
		<stop  offset="0" style="stop-color:#4D26F4"/>
		<stop  offset="1" style="stop-color:#A212D8"/>
	</linearGradient>
	<path class="st1" d="M79.5,331.8c-12.2,7.7-2.3,82.2,46.8,111.7c38.4,23,94,14.5,134.7-23c26.4,34.4,69.5,47.5,104.3,33.7
		c34.6-13.8,46.6-48.6,48.4-54.2c27.1,14.3,60.3,6.7,77.2-16.4c17.1-23.4,11.5-54.2-1.1-71c-2.2-3-4.5-5.3-6.3-7
		c29.7-20.9,43.7-56.6,35.3-87.9c-10.7-39.8-56.2-67.2-103.5-55.8c-4.7-43.8-37.1-79.7-79.6-88.7c-44.1-9.3-89.6,12.2-110.8,52.5
		c-21.9-22.3-55-25.9-77.2-10.7c-25.4,17.5-23.9,50.8-23.8,52.5c-47.1-8.4-91.3,19.5-102.6,59.9c-12.6,45.3,21.4,87.4,49.3,101
		c10.2,5,28.5,10.5,28.7,9.9C99.5,337.8,85.4,328.1,79.5,331.8z"/>
	<linearGradient id="SVGID_2_" gradientUnits="userSpaceOnUse" x1="422.5665" y1="513.9163" x2="479.7444" y2="446.12">
		<stop  offset="0" style="stop-color:#4D26F4"/>
		<stop  offset="1" style="stop-color:#A212D8"/>
	</linearGradient>
	<path class="st2" d="M429.7,448.2c-1.1-7.3,17.3-21.1,34.3-17.5c14.8,3.2,21.5,18.2,22.4,20.3c14.1-1.3,26.2,9.7,26.6,23.1
		c0.4,13.6-11.6,25.4-25.9,24.5c0.1,9.6-4,18.5-11.2,22.4c-10.6,5.8-27.4,0.6-35-14.7c-15.3,7.7-33.7,1.9-41.3-11.9
		c-8.6-15.7-0.3-36.2,14-42c10.7-4.3,21.4,0.9,23.8,2.1C434,453.3,430.2,451.3,429.7,448.2z"/>
	<linearGradient id="SVGID_3_" gradientUnits="userSpaceOnUse" x1="249.0594" y1="527.485" x2="279.7037" y2="491.1498">
		<stop  offset="0" style="stop-color:#4D26F4"/>
		<stop  offset="1" style="stop-color:#A212D8"/>
	</linearGradient>
	<path class="st3" d="M250.9,493.1c-1.5-2.7,3.8-11.8,11.4-12.1c5-0.2,10.1,3.6,12.1,9.4c16.1,0,23.1,7.9,22.1,20.1
		c-0.4,5.2-5.9,9.5-10.7,11.4c-6.3,2.5-12,0.5-13.4,0c-0.2,3.1-1.8,5.9-4.4,7c-3.6,1.6-8.5-0.2-10.7-4.7c-11.4,3-21.8-4-23.3-12.7
		c-1.2-7,3.4-15.2,10.7-17.7c4.5-1.5,8.7-0.3,10.3,0.3C253.2,494.4,251.5,494.2,250.9,493.1z"/>
	
		<linearGradient id="SVGID_4_" gradientUnits="userSpaceOnUse" x1="60.2829" y1="99.7583" x2="104.2242" y2="47.6567" gradientTransform="matrix(0.9788 0.205 -0.205 0.9788 13.0936 -16.8386)">
		<stop  offset="0" style="stop-color:#4D26F4"/>
		<stop  offset="1" style="stop-color:#A212D8"/>
	</linearGradient>
	<path class="st4" d="M64.3,45.5c-1.4-4.2,8.9-15.4,19.6-13.6c7.1,1.2,13.1,8,14.2,16.7c22.6,4.8,30.1,17.8,25.2,34.8
		c-2.1,7.1-11,11.6-18.4,12.9c-9.6,1.6-17-2.8-18.8-3.9c-1.2,4.3-4.3,7.7-8.2,8.5c-5.5,1.2-11.9-2.8-13.6-9.7
		c-16.9,0.8-29.5-12-29-24.6c0.4-10.2,9.2-20.4,20.2-21.7c6.8-0.8,12.2,2.1,14.4,3.5C67.2,48,64.8,47.1,64.3,45.5z"/>
</g>
</svg>
