<?xml version="1.0" encoding="utf-8"?>
<!-- Generator: Adobe Illustrator 21.0.2, SVG Export Plug-In . SVG Version: 6.00 Build 0)  -->
<svg version="1.1" id="Слой_1" xmlns="http://www.w3.org/2000/svg" xmlns:xlink="http://www.w3.org/1999/xlink" x="0px" y="0px"
	 viewBox="0 0 1903 700" style="enable-background:new 0 0 1903 700;" xml:space="preserve">
<style type="text/css">
	.st0{fill:#EEEEFF;}
	.st1{fill:#6541FF;}
</style>
<path class="st0" d="M0,0c290.7,132,464.5,322.2,433.5,458c-12.1,52.8-54.1,93.2-81.5,119.6C220.5,704,47.4,702.1,0,700V0z"/>
<path class="st0" d="M1386.7,240.7c-2.9-1-133.2-18.7-158.2,34.5c-5,10.6-4.1,20.4-3.7,26.4c7.3,104.2-83,190.1-55.4,240.2
	c23.8,43.4,122.3,34.8,171.7,23.9c111.2-24.4,282.7-136.3,228.3-209.8C1525.9,297.2,1386.7,240.7,1386.7,240.7z"/>
<path class="st1" d="M0,109c0,0,71,27.1,102,119s-59.3,83.9,28.1,136.7s29.9,85.1-36.8,97.7S0,516.5,0,516.5V109z"/>
</svg>
