<?xml version="1.0" encoding="utf-8"?>
<!-- Generator: Adobe Illustrator 21.0.2, SVG Export Plug-In . SVG Version: 6.00 Build 0)  -->
<svg version="1.1" id="Слой_1" xmlns="http://www.w3.org/2000/svg" xmlns:xlink="http://www.w3.org/1999/xlink" x="0px" y="0px"
	 viewBox="0 0 1920 969" style="enable-background:new 0 0 1920 969;" xml:space="preserve">
<style type="text/css">
	.st0{fill:url(#SVGID_1_);}
</style>
<linearGradient id="SVGID_1_" gradientUnits="userSpaceOnUse" x1="225.6644" y1="1211.2145" x2="1821.9622" y2="144.3342">
	<stop  offset="0" style="stop-color:#6541FF"/>
	<stop  offset="1" style="stop-color:#4D26F4"/>
</linearGradient>
<path class="st0" d="M0,663.7c0,0,32-138.7,138.7-108c106.7,30.7,186.7,10.7,160-62.7C272,419.7,284,375.7,357.3,385
	s137.3-38.7,112-101.3C444,221,476,177,528,197s152-8,116-72s9.3-104,48-101.3S754.7,0,754.7,0H1920v969h-225.3
	c0,0,73.3-98.7,21.3-105.3c-52-6.7-61.3-60-30.7-73.3c30.7-13.3,17.3-118.7-50.7-92c-68,26.7-138.7,38.7-165.3-8
	c-26.7-46.7-98.7-9.3-92,29.3c6.7,38.7-5.3,66.7-49.3,32c-44-34.7-134.7-41.3-128,14.7s-5.3,84-68,56s-145.3,25.3-126.7,73.3
	c18.7,48-72,73.3-72,73.3H0V663.7z"/>
</svg>
