<?xml version="1.0" encoding="utf-8"?>
<!-- Generator: Adobe Illustrator 21.0.2, SVG Export Plug-In . SVG Version: 6.00 Build 0)  -->
<svg version="1.1" xmlns="http://www.w3.org/2000/svg" xmlns:xlink="http://www.w3.org/1999/xlink" x="0px" y="0px"
	 viewBox="0 0 500 700" style="enable-background:new 0 0 500 700;" xml:space="preserve">
<style type="text/css">
	.st0{fill:url(#SVGID_1_);}
	.st1{fill:url(#SVGID_2_);}
	.st2{fill:url(#SVGID_3_);}
	.st3{fill:url(#SVGID_4_);}
	.st4{fill:url(#SVGID_5_);}
</style>
<g id="Слой_5">
	<linearGradient id="SVGID_1_" gradientUnits="userSpaceOnUse" x1="96.0536" y1="471.6023" x2="488.4136" y2="161.677">
		<stop  offset="0" style="stop-color:#805EF4"/>
		<stop  offset="1" style="stop-color:#4D26F4"/>
	</linearGradient>
	<rect class="st0" width="500" height="700"/>
</g>
<g id="Слой_4">
	<linearGradient id="SVGID_2_" gradientUnits="userSpaceOnUse" x1="136.1564" y1="706.3853" x2="420.9562" y2="438.6606">
		<stop  offset="0" style="stop-color:#7E3CFF"/>
		<stop  offset="0.7397" style="stop-color:#7228FF"/>
	</linearGradient>
	<path class="st1" d="M118.6,536.8c0,0-78.5-146.2,31.5-156.2s235.4-25.4,239.2,37.7s-13.8,183.8,39.2,193.1S500,653,500,653v47
		H130.2L118.6,536.8z"/>
</g>
<g id="Слой_3">
	<linearGradient id="SVGID_3_" gradientUnits="userSpaceOnUse" x1="109.3369" y1="461.9852" x2="554.6646" y2="43.3569">
		<stop  offset="0.3785" style="stop-color:#6DDBFF"/>
		<stop  offset="1" style="stop-color:#2A63A7"/>
	</linearGradient>
	<path class="st2" d="M146.3,0c0,0-225.4,296.1-49.2,409.2s202.3-70,276.2,63.8S500,519.2,500,519.2V0H146.3z"/>
</g>
<g id="Слой_1">
	<linearGradient id="SVGID_4_" gradientUnits="userSpaceOnUse" x1="-14.7093" y1="700.0184" x2="198.5205" y2="499.5727">
		<stop  offset="0" style="stop-color:#3F0DFF"/>
		<stop  offset="1" style="stop-color:#DA00FF"/>
	</linearGradient>
	<path class="st3" d="M0,452.4c0,0,187.1-18.2,189.6,61.2s80.2,62,100,99.2c19.8,37.2-62.8,87.3-62.8,87.3H0V452.4z"/>
</g>
<g id="Слой_2">
	<linearGradient id="SVGID_5_" gradientUnits="userSpaceOnUse" x1="138.1968" y1="280.8503" x2="476.0267" y2="-36.7252">
		<stop  offset="0" style="stop-color:#5525E9"/>
		<stop  offset="1" style="stop-color:#D515A4"/>
	</linearGradient>
	<path class="st4" d="M98.6,0c0,0-169.6,163.8-3.8,155.3c37.7-1.9,102.3-12.3,142.3-25.4C380.4,83.1,377.3,203.3,400.2,273
		c28.5,86.9,99.8-21.5,99.8-21.5V0H98.6z"/>
</g>
</svg>
