<svg id="Capa_1" enable-background="new 0 0 512 512" height="512" viewBox="0 0 512 512" width="512" xmlns="http://www.w3.org/2000/svg"><g><g><path d="m436 226.29v-126.29c0-17.17-4.8-33.21-13.15-46.85l-46.85 46.85-30-30-30 30-30-30-30 30-30-30-30 30-30-30-30 30-46.85-46.85c-8.35 13.64-13.15 29.68-13.15 46.85v126.29c-35.83-3.48-66 24.59-66 59.71s30.17 63.19 66 59.71v66.29c0 49.71 40.29 90 90 90h180c49.71 0 90-40.29 90-90v-66.29c35.83 3.48 66-24.59 66-59.71s-30.17-63.19-66-59.71z" fill="#a7e8a6"/><g fill="#8690af"><path d="m422.85 53.15-46.85 46.85-30-30-30 30-30-30-30 30-30-30-30 30-30-30-30 30-46.85-46.85c15.8-25.88 44.3-43.15 76.85-43.15h180c32.55 0 61.05 17.27 76.85 43.15z"/><path d="m373.55 256c8.29 24.85-5.14 51.72-30 60-24.85 8.28-51.71-5.15-60-30z"/><path d="m136 256 90 30c-8.28 24.85-35.15 38.28-60 30s-38.28-35.15-30-60z"/></g></g><g><path d="m162.839 325.487c29.987 9.99 62.618-6.222 72.648-36.326 1.746-5.239-1.086-10.902-6.325-12.648l-90-30c-5.236-1.746-10.903 1.086-12.649 6.326-10.033 30.111 6.211 62.614 36.326 72.648zm-19.238-56.413 68.465 22.822c-9.155 13.603-26.603 20.049-42.904 14.617-16.747-5.58-26.406-21.517-25.561-37.439z"/><path d="m370.388 246.513-90 30c-5.237 1.746-8.071 7.412-6.324 12.651 10.046 30.113 42.679 46.306 72.646 36.323 30.12-10.032 46.373-42.532 36.326-72.652-1.747-5.237-7.41-8.067-12.648-6.322zm-29.999 60c-16.291 5.428-33.739-1.017-42.9-14.618l68.465-22.821c.851 15.963-8.845 31.87-25.565 37.439z"/><path d="m502 126c-5.522 0-10 4.477-10 10v20h-46v-56c0-54.953-44.498-100-100-100h-180c-55.407 0-100 44.977-100 100v56h-46v-20c0-5.523-4.478-10-10-10s-10 4.477-10 10v60c0 5.523 4.478 10 10 10s10-4.477 10-10v-20h46v40.132c-37.738 2.227-66 33.403-66 69.868 0 36.336 28.121 67.62 66 69.856v56.144c0 55.14 44.859 100 100 100h45c5.522 0 10-4.477 10-10s-4.478-10-10-10h-45c-44.112 0-80-35.888-80-80 0-4.39 0-308.945 0-312 0-10.364 2-20.547 5.837-30.021l37.092 37.093c1.876 1.875 4.419 2.929 7.071 2.929s5.195-1.054 7.071-2.929l22.929-22.93 22.929 22.929c3.906 3.904 10.236 3.904 14.143 0l22.928-22.929 22.929 22.929c3.906 3.904 10.236 3.904 14.143 0l22.928-22.929 22.929 22.929c1.953 1.952 4.511 2.929 7.071 2.929s5.118-.977 7.071-2.929l22.929-22.929 22.929 22.929c1.876 1.875 4.419 2.929 7.071 2.929s5.195-1.054 7.071-2.929l37.092-37.093c3.836 9.472 5.837 19.657 5.837 30.022v312c0 44.112-35.888 80-80 80h-45c-5.522 0-10 4.477-10 10s4.478 10 10 10h45c55.141 0 100-44.86 100-100v-56.144c37.895-2.237 66-33.535 66-69.856 0-36.401-28.196-67.632-66-69.867v-40.133h46v20c0 5.523 4.478 10 10 10s10-4.477 10-10v-60c0-5.523-4.478-10-10-10zm-482 160c0-25.711 19.759-47.801 46-49.836v99.671c-26.232-2.035-46-24.113-46-49.835zm356-200.142-22.929-22.929c-3.906-3.905-10.236-3.905-14.143 0l-22.928 22.929-22.929-22.929c-3.906-3.905-10.236-3.905-14.143 0l-22.928 22.929-22.929-22.929c-3.906-3.905-10.236-3.905-14.143 0l-22.928 22.929-22.929-22.929c-3.906-3.905-10.236-3.905-14.143 0l-22.928 22.929-33.945-33.946c15.07-20.115 38.448-31.912 63.945-31.912h180c25.494 0 48.87 11.794 63.945 31.912zm116 200.142c0 25.713-19.762 47.802-46 49.836v-99.672c26.244 2.036 46 24.126 46 49.836z"/><path d="m166 422h180c5.522 0 10-4.477 10-10s-4.478-10-10-10h-180c-5.522 0-10 4.477-10 10s4.478 10 10 10z"/><path d="m166 141c-5.522 0-10 4.477-10 10v20h-20c-5.522 0-10 4.477-10 10s4.478 10 10 10h20v20c0 5.523 4.478 10 10 10s10-4.477 10-10v-20h40v20c0 5.523 4.478 10 10 10s10-4.477 10-10v-20h40v20c0 5.523 4.478 10 10 10s10-4.477 10-10v-20h40v20c0 5.523 4.478 10 10 10s10-4.477 10-10v-20h20c5.522 0 10-4.477 10-10s-4.478-10-10-10h-20v-20c0-5.523-4.478-10-10-10s-10 4.477-10 10v20h-40v-20c0-5.523-4.478-10-10-10s-10 4.477-10 10v20h-40v-20c0-5.523-4.478-10-10-10s-10 4.477-10 10v20h-40v-20c0-5.523-4.478-10-10-10z"/><circle cx="256" cy="502" r="10"/></g></g></svg>