<svg id="Capa_1" enable-background="new 0 0 511.225 511.225" height="512" viewBox="0 0 511.225 511.225" width="512" xmlns="http://www.w3.org/2000/svg"><g><g><path d="m307.666 137.827-26.671-38.622v-83.934c0-4.292-3.479-7.771-7.771-7.771h-4.721-25.78-4.721c-4.292 0-7.771 3.479-7.771 7.771v83.933l-26.671 38.622v51.003h104.872v-6.432c-.001.001-.766-43.536-.766-44.57z" fill="#d77f4a"/><path d="m249.348 104.909c2.565-3.715 3.939-8.123 3.939-12.637v-77.001c0-4.292 3.479-7.771 7.771-7.771h-18.336-4.721c-4.292 0-7.771 3.479-7.771 7.771v83.933l-26.671 38.622v51.003h23.057v-51.003z" fill="#c86d36"/><g><path d="m163.13 176.984-23.087-16.146c-5.44-1.76-11.24-2.73-17.27-2.73-24.08 0-45.89 9.76-61.67 25.55-15.78 15.78-25.54 37.58-25.54 61.67v138.68c0 48.17 39.04 87.22 87.21 87.22 5.37 0 10.55-.78 15.47-2.19l30.293-10.276z" fill="#fe7701"/><path d="m154.912 460.71c-48.17 0-87.21-39.05-87.21-87.22v-138.68c0-24.09 9.76-45.89 25.54-61.67 5.616-5.619 11.999-10.47 18.972-14.394-19.862 2.397-37.674 11.466-51.112 24.912-15.78 15.78-25.54 37.58-25.54 61.67v138.68c0 48.17 39.04 87.22 87.21 87.22 5.37 0 10.55-.78 15.47-2.19l28.03-9.508c-3.669.764-7.464 1.18-11.36 1.18z" fill="#f46700"/><path d="m388.453 158.108c-3.02 0-5.98.24-8.86.71-2.603.414-5.129 1.016-7.593 1.773-.322.045-.599.123-.817.247-3.706 2.111-37.715 5.017-37.715 5.017l-6.245 294.446 45.76 8.737c4.92 1.41 10.1 2.19 15.47 2.19 24.08 0 45.89-9.76 61.67-25.55 15.78-15.78 25.54-37.58 25.54-61.67v-138.68c0-48.17-39.04-87.22-87.21-87.22z" fill="#fe7701"/><g id="XMLID_176_"><g><path d="m371.183 160.838h-.01c-17.2-14.37-39.35-23.01-63.51-23.01-4.33 0-8.51.63-12.47 1.8h-45.47v348.414l45.48 3.746 4.119-2.975c-1.341 1.034-2.705 2.038-4.119 2.975 3.96 1.17 8.13 1.8 12.46 1.8 25.02 0 47.87-9.26 65.31-24.55h.01c1.65-1.44 3.24-2.93 4.79-4.48 17.94-17.94 29.03-42.72 29.03-70.1v-157.49c0-30.59-13.85-57.94-35.62-76.13z" fill="#fe860a"/><path d="m216.033 139.628c-3.96-1.17-8.14-1.8-12.47-1.8-24.16 0-46.31 8.64-63.51 23.01h-.01c-2.29 1.91-4.49 3.92-6.59 6.02-17.94 17.94-29.03 42.73-29.03 70.11v157.49c0 29.73 13.09 56.41 33.82 74.58h.01c17.44 15.29 40.29 24.55 65.31 24.55 4.33 0 8.5-.63 12.46-1.8l33.7-3.746 5.39-348.414z" fill="#fe860a"/><path d="m295.203 491.788c-11.34 7.55-24.95 11.94-39.59 11.94s-28.25-4.39-39.59-11.94c-19.3-12.82-32.02-34.77-32.02-59.68v-4.77c.84-.85 0-228.03 0-228.03 0-19.77 8.01-37.68 20.97-50.64 3.37-3.37 7.07-6.4 11.06-9.04 11.33-7.54 24.94-11.93 39.58-11.93s28.25 4.39 39.58 11.93c19.31 12.82 32.03 34.76 32.03 59.68v228.03 4.77c0 19.77-8.01 37.68-20.97 50.64-3.37 3.37-7.07 6.4-11.05 9.04z" fill="#fe9738"/></g></g></g><path d="m145.59 289.83h83.024c3.262 0 4.799-4.028 2.366-6.201l-67.513-60.301c-1.69-1.51-4.347-1.071-5.466.9-11.125 19.584-17.06 40.197-15.966 62.206.094 1.898 1.654 3.396 3.555 3.396z" fill="#685e68"/><path d="m176.011 234.533-12.545-11.205c-1.69-1.51-4.347-1.071-5.466.9-11.125 19.584-17.06 40.197-15.966 62.206.094 1.898 1.655 3.396 3.555 3.396h16.85c-.523-19.434 4.423-37.783 13.572-55.297z" fill="#554e56"/><path d="m365.635 289.83h-83.024c-3.262 0-4.799-4.028-2.366-6.201l67.513-60.301c1.69-1.51 4.347-1.071 5.466.9 11.125 19.584 17.06 40.197 15.966 62.206-.094 1.898-1.654 3.396-3.555 3.396z" fill="#685e68"/><path d="m293.9 435.452c40.064 0 72.542-32.478 72.542-72.542v-13.562c0-1.475-1.195-2.67-2.67-2.67h-48.121c-.893 0-1.726.446-2.221 1.189l-14.482 21.724c-.495.743-1.329 1.189-2.221 1.189h-21.371c-1.475 0-2.67-1.195-2.67-2.67v-8.318c0-1.475-1.195-2.67-2.67-2.67h-28.806c-1.475 0-2.67 1.195-2.67 2.67v8.318c0 1.475-1.195 2.67-2.67 2.67h-21.371c-.893 0-1.726-.446-2.221-1.189l-14.482-21.724c-.495-.743-1.329-1.189-2.221-1.189h-48.121c-1.475 0-2.67 1.195-2.67 2.67v13.562c0 40.064 32.478 72.542 72.542 72.542z" fill="#685e68"/><g><path d="m187.039 362.91v-13.562c0-1.475 1.195-2.67 2.67-2.67h-42.256c-1.474 0-2.67 1.195-2.67 2.67v13.562c0 40.064 32.478 72.542 72.542 72.542h42.256c-40.064 0-72.542-32.478-72.542-72.542z" fill="#554e56"/></g></g><path d="m388.45 150.611c-5.299 0-10.55.669-15.663 1.97-17.043-13.183-38.169-21.323-61.129-22.173l-23.163-33.543v-81.594c0-8.42-6.851-15.271-15.271-15.271h-35.223c-8.421 0-15.271 6.851-15.271 15.271v17.49c0 4.142 3.358 7.5 7.5 7.5s7.5-3.358 7.5-7.5v-17.49c0-.149.122-.271.271-.271h35.223c.15 0 .271.122.271.271v83.933c0 1.522.463 3.009 1.329 4.262l17.984 26.042c-11.095-5.936-23.756-9.314-37.195-9.314s-26.1 3.378-37.195 9.314l17.984-26.042c.865-1.253 1.329-2.739 1.329-4.262v-34.481c0-4.142-3.358-7.5-7.5-7.5s-7.5 3.358-7.5 7.5v32.143l-23.163 33.543c-22.96.85-44.086 8.99-61.129 22.173-5.114-1.301-10.364-1.97-15.663-1.97-52.226 0-94.714 42.488-94.714 94.714v138.684c0 52.226 42.488 94.714 94.714 94.714 4.584 0 9.156-.505 13.64-1.491 18.345 14.909 41.718 23.859 67.144 23.859 3.779 0 7.541-.419 11.228-1.241 11.926 7.215 25.899 11.374 40.826 11.374s28.899-4.159 40.826-11.374c3.687.822 7.45 1.241 11.228 1.241 25.427 0 48.799-8.95 67.144-23.859 4.485.986 9.056 1.491 13.64 1.491 52.226 0 94.714-42.488 94.714-94.714v-138.685c-.001-52.225-42.49-94.714-94.716-94.714zm-68.723 48.697v39.001l-44.478 39.727c-3.449 3.081-4.612 7.862-2.963 12.183s5.702 7.112 10.326 7.112h37.115v41.849h-4.076c-3.408 0-6.571 1.693-8.461 4.528l-13.049 19.573h-13.956v-3.488c0-5.607-4.562-10.169-10.17-10.169h-28.805c-5.607 0-10.169 4.562-10.169 10.169v3.488h-13.956l-13.049-19.573c-1.89-2.835-5.053-4.528-8.461-4.528h-4.076v-41.85h37.115c4.624 0 8.677-2.792 10.325-7.111 1.649-4.32.485-9.103-2.963-12.183l-44.477-39.727v-39.001c0-35.353 28.762-64.114 64.114-64.114s64.114 28.762 64.114 64.114zm-26.768 83.022 56.09-50.099c8.767 16.756 12.962 33.222 12.765 50.099zm-116.461 149.39v.391c0 20.756 8.046 39.66 21.168 53.787-47.793-3.049-85.745-42.894-85.745-91.443v-157.49c0-48.549 37.952-88.394 85.745-91.443-13.122 14.127-21.168 33.031-21.168 53.787v25.603l-8.035-7.177c-2.504-2.236-5.84-3.208-9.155-2.663-3.316.544-6.17 2.531-7.829 5.452-12.344 21.73-18.042 44.031-16.935 66.283.293 5.901 5.145 10.524 11.045 10.524h30.909v41.849h-29.045c-5.608 0-10.17 4.562-10.17 10.169v13.562c0 29.229 15.757 54.837 39.215 68.809zm-27.087-149.39c-.197-16.875 3.998-33.342 12.765-50.099l56.09 50.099zm-106.351 101.68v-138.685c0-43.955 35.759-79.714 79.714-79.714.527 0 1.054.014 1.58.031-17.043 18.908-27.433 43.923-27.433 71.322v157.49c0 26.416 9.659 50.616 25.626 69.264-43.85-.123-79.487-35.829-79.487-79.708zm148.784 54.759c8.01 2.698 16.573 4.183 25.481 4.183h3.113c4.142 0 7.5-3.358 7.5-7.5s-3.358-7.5-7.5-7.5h-3.113c-35.864 0-65.042-29.178-65.042-65.042v-8.731h40.706l13.048 19.572c1.89 2.836 5.054 4.529 8.462 4.529h21.371c5.608 0 10.17-4.562 10.17-10.17v-3.487h19.145v3.487c0 5.608 4.562 10.17 10.17 10.17h21.371c3.408 0 6.572-1.693 8.462-4.529l13.048-19.572h40.706v8.731c0 35.864-29.178 65.042-65.042 65.042h-41.5c-4.142 0-7.5 3.358-7.5 7.5s3.358 7.5 7.5 7.5h41.5c8.908 0 17.471-1.485 25.481-4.183-3.342 32.235-30.664 57.456-63.768 57.456s-60.427-25.221-63.769-57.456zm276.321-54.759c0 43.878-35.637 79.584-79.487 79.708 15.966-18.648 25.626-42.847 25.626-69.264v-10.024c0-4.142-3.358-7.5-7.5-7.5s-7.5 3.358-7.5 7.5v10.024c0 48.549-37.952 88.394-85.745 91.443 13.122-14.127 21.168-33.031 21.168-53.787v-.391c23.458-13.971 39.215-39.58 39.215-68.81v-13.562c0-5.607-4.562-10.169-10.17-10.169h-29.045v-41.848h30.908c5.901 0 10.753-4.623 11.046-10.524 1.106-22.252-4.592-44.553-16.936-66.284-1.66-2.92-4.513-4.907-7.83-5.451-3.313-.545-6.65.427-9.153 2.663l-8.035 7.177v-25.603c0-20.756-8.046-39.66-21.168-53.787 47.793 3.049 85.745 42.894 85.745 91.443v115.504c0 4.142 3.358 7.5 7.5 7.5s7.5-3.358 7.5-7.5v-115.504c0-27.399-10.39-52.415-27.433-71.322.526-.017 1.052-.031 1.58-.031 43.955 0 79.714 35.759 79.714 79.714z"/></g></svg>