<?xml version="1.0" encoding="utf-8"?>
<!-- Generator: Adobe Illustrator 21.0.2, SVG Export Plug-In . SVG Version: 6.00 Build 0)  -->
<svg version="1.1" id="Слой_1" xmlns="http://www.w3.org/2000/svg" xmlns:xlink="http://www.w3.org/1999/xlink" x="0px" y="0px"
	 viewBox="0 0 1903 900" style="enable-background:new 0 0 1903 900;" xml:space="preserve">
<style type="text/css">
	.st0{fill:#FFFFFF;stroke:#221E1F;stroke-miterlimit:10;}
	.st1{fill:url(#SVGID_1_);}
	.st2{fill:url(#SVGID_2_);}
</style>
<path class="st0" d="M0,474.1"/>
<linearGradient id="SVGID_1_" gradientUnits="userSpaceOnUse" x1="1011.7462" y1="559.2548" x2="1792.3199" y2="1080.8663" gradientTransform="matrix(1 0 0 -1 0 900)">
	<stop  offset="0" style="stop-color:#4D26F4"/>
	<stop  offset="1" style="stop-color:#A212D8"/>
</linearGradient>
<path class="st1" d="M862.7,181.6c18.9,33.5,37.2,64.3,54.8,92.5c155.2,248,262.1,297.7,325.8,283.9c106-23,108.2-235.2,254.2-270.8
	c114.8-28,196.6,82.9,295.8,38.9c63.9-28.3,94-102.7,109.7-165.3V0H758.5L862.7,181.6z"/>
<linearGradient id="SVGID_2_" gradientUnits="userSpaceOnUse" x1="-69.7393" y1="261.6953" x2="311.9749" y2="6.6182">
	<stop  offset="0" style="stop-color:#4D26F4"/>
	<stop  offset="1" style="stop-color:#A212D8"/>
</linearGradient>
<path class="st2" d="M296.8-8.7c0,0-137.9,126.4-106.9,213.8S140.5,394.8,68,358s-142.5,5.7-126.4-83.9S-31,4-31,4L296.8-8.7z"/>
</svg>
