<?xml version="1.0" encoding="utf-8"?>
<!-- Generator: Adobe Illustrator 21.0.2, SVG Export Plug-In . SVG Version: 6.00 Build 0)  -->
<svg version="1.1" id="b9bf6650-716f-405e-b16b-128ee0039b2f"
	 xmlns="http://www.w3.org/2000/svg" xmlns:xlink="http://www.w3.org/1999/xlink" x="0px" y="0px" viewBox="0 0 1036 570"
	 style="enable-background:new 0 0 1036 570;" xml:space="preserve">
<style type="text/css">
	.st0{fill:#3F3D56;}
	.st1{opacity:0.3;fill:#6C63FF;enable-background:new    ;}
	.st2{fill:#6C63FF;}
	.st3{opacity:0.1;enable-background:new    ;}
	.st4{fill:#F2F2F2;}
</style>
<title>Books</title>
<path class="st0" d="M191,295.8c0,106-85.9,191.9-191.9,191.9V103.9C105.1,103.9,191,189.9,191,295.8z"/>
<path class="st0" d="M845,295.8c0,106,85.9,191.9,191.9,191.9V103.9C930.9,103.9,845,189.9,845,295.8z"/>
<path class="st0" d="M187.2,80.9c-7.6,0-13.7-6.1-13.7-13.7s6.1-13.7,13.7-13.7c7.6,0,13.7,6.1,13.7,13.7l0,0
	C200.9,74.7,194.8,80.9,187.2,80.9z M187.2,55.8c-6.3,0-11.4,5.1-11.4,11.4s5.1,11.4,11.4,11.4s11.4-5.1,11.4-11.4
	C198.7,60.9,193.5,55.8,187.2,55.8z"/>
<path class="st0" d="M797,436.4h-22.5v-22.5H797V436.4z M776.2,434.7h19.1v-19.1h-19.1V434.7z"/>
<path class="st0" d="M259.7,416l-15.4-16.5l16.5-15.4l15.4,16.5L259.7,416z M246.8,399.6l13,14l14-13l-13-14L246.8,399.6z"/>
<path class="st0" d="M774.9,569.4c-24.7-3.9-48.4-7.2-71.2-9.9l8.8-17.6c-3-1-16.3,9.1-16.3,9.1l11.2-50.8
	c-15.2,2-22.3,53.8-22.3,53.8l-17.3-17.3l8.5,19.5c-69.8-7.3-130-9.6-180.6-9.1l7.5-15c-3-1-16.3,9.1-16.3,9.1l11.2-50.8
	c-15.2,2-22.3,53.8-22.3,53.8l-17.3-17.3l9,20.7c-34.7,1-69.2,3.8-103.6,8.3c7.5-23.4,33.7-45.8,33.7-45.8
	c-20.1,6.3-30.6,16.5-36,25.9c-1.1-48,6.3-95.8,21.8-141.2c0,0-40.6,91.4-34.5,152.4l0.8,10.8c-35.3,5.5-53.1,11-53.1,11
	L774.9,569.4z"/>
<circle class="st1" cx="524.4" cy="287.9" r="158.8"/>
<polygon class="st2" points="459.2,85.9 353.5,214.1 510,398.8 614.3,276.2 "/>
<polygon class="st3" points="459.2,85.9 353.5,214.1 510,398.8 614.3,276.2 "/>
<path class="st4" d="M357.7,215.5L357.7,215.5c2.3-4.2,5.2-8.1,8.6-11.5l97.1-98.4c0,0,33.8-5.6,40.9,11.3l-124,101.5L357.7,215.5z"
	/>
<path class="st2" d="M352.8,213.4l143.8,219.9c0,0,14.1,9.9,28.2,4.2l147.3-99.4L515.6,101.4l-141,109.9L352.8,213.4z"/>
<rect x="398" y="167.9" transform="matrix(0.8121 -0.5835 0.5835 0.8121 -13.4443 296.4303)" class="st0" width="111.1" height="2.3"/>
<rect x="463.7" y="207.6" transform="matrix(0.8341 -0.5517 0.5517 0.8341 -96.5836 308.7112)" class="st0" width="2.3" height="214.6"/>
<rect x="526.6" y="373.7" transform="matrix(0.8055 -0.5926 0.5926 0.8055 -108.1411 420.243)" class="st0" width="119" height="2.3"/>
<rect x="574.4" y="120.1" transform="matrix(0.8208 -0.5713 0.5713 0.8208 -26.7996 369.5915)" class="st0" width="2.3" height="214.7"/>
<rect x="346.3" y="155.2" transform="matrix(0.7367 -0.6762 0.6762 0.7367 5.7093 326.3745)" class="st0" width="151.4" height="1.4"/>
<rect x="351" y="156.4" transform="matrix(0.7497 -0.6618 0.6618 0.7497 3.3679 323.0817)" class="st0" width="155.5" height="1.4"/>
<rect x="355" y="157.4" transform="matrix(0.7681 -0.6403 0.6403 0.7681 -0.6622 314.3896)" class="st0" width="157.5" height="1.4"/>
</svg>
