<?xml version="1.0"?>
<svg xmlns="http://www.w3.org/2000/svg" xmlns:xlink="http://www.w3.org/1999/xlink" version="1.1" id="Layer_1" x="0px" y="0px" viewBox="0 0 444.461 444.461" style="enable-background:new 0 0 444.461 444.461;" xml:space="preserve" width="512px" height="512px" class=""><g><g>
	<g>
		<g>
			<path d="M344.733,211.812c-5.131-5.12-11.904-7.879-19.193-7.766c-5.668,0.088-10.92,2.016-15.207,5.216     c-4.353-10.974-15.075-18.754-27.58-18.754c-6.629,0-12.756,2.187-17.7,5.875c-3.434-12.577-14.962-21.849-28.613-21.849     c-6.169,0-11.905,1.894-16.655,5.13l0.001-81.24c0-16.352-13.303-29.655-29.655-29.655c-7.916,0-15.364,3.081-20.974,8.681     c-5.602,5.604-8.688,13.052-8.688,20.974V224.1c-2.363-0.427-4.773-0.642-7.217-0.642c-14.746,0-26.743,11.979-26.743,26.703     c0,1.197,0.085,2.426,0.252,3.653c0.816,5.99-0.968,12.066-4.895,16.668l-8.853,10.368c-8.433,9.866-10.318,23.834-4.803,35.582     l25.936,55.335c4.372,9.326,11.206,17.261,19.764,22.948c5.18,3.443,9.423,5.948,12.605,7.444c2.293,1.081,4.22,2.78,5.581,4.926     c1.354,2.128,2.07,4.59,2.07,7.12v23.756c0,3.59,2.91,6.5,6.5,6.5h154.448c3.59,0,6.5-2.91,6.498-6.501     c0-14.511,2.065-28.933,6.136-42.864c3.161-10.815,4.764-22.014,4.764-33.285V230.593     C352.512,223.498,349.751,216.83,344.733,211.812z M339.513,361.812c0,10.036-1.427,20.008-4.242,29.638     c-3.808,13.034-5.999,26.465-6.53,40.011H187.168v-17.256c0-5.008-1.42-9.884-4.098-14.091     c-2.677-4.222-6.486-7.582-11.018-9.717c-2.575-1.211-6.361-3.462-10.947-6.509c-6.575-4.369-11.827-10.468-15.187-17.638     l-25.938-55.339c-3.351-7.139-2.206-15.623,2.918-21.618l8.855-10.372c6.329-7.417,9.204-17.209,7.888-26.864     c-0.09-0.655-0.133-1.276-0.133-1.897c0-7.556,6.165-13.703,13.743-13.703c2.47,0,4.885,0.323,7.217,0.962v67.85     c0,3.59,2.91,6.5,6.5,6.5c3.59,0,6.5-2.91,6.5-6.5V98.424c0-4.449,1.733-8.633,4.877-11.777     c3.151-3.146,7.337-4.878,11.785-4.878c9.183,0,16.655,7.472,16.655,16.655l-0.002,136.086c0,3.59,2.91,6.5,6.5,6.5     c3.59,0,6.5-2.91,6.5-6.5v-30.44c0.065-9.129,7.512-16.536,16.656-16.536c9.184,0,16.656,7.472,16.656,16.656v15.976     c0,3.59,2.91,6.5,6.5,6.5c3.59,0,6.5-2.91,6.5-6.5c0-9.185,7.473-16.657,16.657-16.657s16.656,7.472,16.656,16.658l0.002,10.879     c0.001,3.59,2.911,6.499,6.501,6.499c3.589,0,6.499-2.91,6.499-6.5c0-7.605,5.98-13.885,13.332-14     c3.667-0.066,7.185,1.352,9.803,3.965c2.559,2.558,3.967,5.961,3.967,9.584V361.812z" data-original="#000000" class="active-path" data-old_color="#000000" fill="#6C63FF"/>
			<path d="M230.908,139.635c2.787,2.262,6.881,1.836,9.143-0.951c9.258-11.408,14.357-25.789,14.357-40.494     c0-35.444-28.836-64.28-64.28-64.28c-35.443,0-64.279,28.836-64.279,64.28c0,15.124,5.358,29.818,15.087,41.376     c1.287,1.527,3.124,2.314,4.976,2.314c1.479,0,2.964-0.501,4.182-1.527c2.747-2.312,3.099-6.413,0.787-9.159     c-7.759-9.218-12.032-20.939-12.032-33.004c0-28.276,23.004-51.28,51.279-51.28c28.276,0,51.28,23.004,51.28,51.28     c0,11.9-3.96,23.071-11.451,32.302C227.694,133.28,228.12,137.373,230.908,139.635z" data-original="#000000" class="active-path" data-old_color="#000000" fill="#6C63FF"/>
			<path d="M142.769,184.201c0.996,0.549,2.072,0.81,3.135,0.81c2.291,0,4.511-1.213,5.698-3.361     c1.734-3.143,0.592-7.097-2.551-8.831c-27.203-15.01-44.101-43.606-44.101-74.629c0-46.974,38.212-85.19,85.18-85.19     c46.974,0,85.19,38.216,85.19,85.19c0,22.72-8.842,44.091-24.9,60.178c-2.536,2.54-2.532,6.656,0.009,9.192     c2.539,2.535,6.655,2.533,9.192-0.008c18.507-18.541,28.699-43.174,28.699-69.362C288.32,44.048,244.273,0,190.13,0     c-54.137,0-98.18,44.048-98.18,98.19C91.95,133.947,111.422,166.904,142.769,184.201z" data-original="#000000" class="active-path" data-old_color="#000000" fill="#6C63FF"/>
		</g>
	</g>
</g></g> </svg>
