<svg xmlns="http://www.w3.org/2000/svg" viewBox="0 0 500 700"><linearGradient id="a" gradientUnits="userSpaceOnUse" x1="96.054" y1="471.602" x2="488.414" y2="161.677"><stop offset="0" stop-color="#805ef4"/><stop offset="1" stop-color="#4d26f4"/></linearGradient><path fill="url(#a)" d="M0 0h500v700H0z"/><linearGradient id="b" gradientUnits="userSpaceOnUse" x1="136.156" y1="706.385" x2="420.956" y2="438.661"><stop offset="0" stop-color="#7e3cff"/><stop offset=".74" stop-color="#7228ff"/></linearGradient><path d="M118.6 536.8s-78.5-146.2 31.5-156.2 235.4-25.4 239.2 37.7-13.8 183.8 39.2 193.1S500 653 500 653v47H130.2l-11.6-163.2z" fill="url(#b)"/><linearGradient id="c" gradientUnits="userSpaceOnUse" x1="109.337" y1="461.985" x2="554.665" y2="43.357"><stop offset=".379" stop-color="#6ddbff"/><stop offset="1" stop-color="#2a63a7"/></linearGradient><path d="M146.3 0S-79.1 296.1 97.1 409.2s202.3-70 276.2 63.8S500 519.2 500 519.2V0H146.3z" fill="url(#c)"/><linearGradient id="d" gradientUnits="userSpaceOnUse" x1="-14.709" y1="700.018" x2="198.52" y2="499.573"><stop offset="0" stop-color="#3f0dff"/><stop offset="1" stop-color="#da00ff"/></linearGradient><path d="M0 452.4s187.1-18.2 189.6 61.2 80.2 62 100 99.2c19.8 37.2-62.8 87.3-62.8 87.3H0V452.4z" fill="url(#d)"/><linearGradient id="e" gradientUnits="userSpaceOnUse" x1="138.197" y1="280.85" x2="476.027" y2="-36.725"><stop offset="0" stop-color="#5525e9"/><stop offset="1" stop-color="#d515a4"/></linearGradient><path d="M98.6 0S-71 163.8 94.8 155.3c37.7-1.9 102.3-12.3 142.3-25.4C380.4 83.1 377.3 203.3 400.2 273c28.5 86.9 99.8-21.5 99.8-21.5V0H98.6z" fill="url(#e)"/></svg>