<svg xmlns="http://www.w3.org/2000/svg" viewBox="0 0 1920 969"><linearGradient id="a" gradientUnits="userSpaceOnUse" x1="225.664" y1="1211.215" x2="1821.962" y2="144.334"><stop offset="0" stop-color="#6541ff"/><stop offset="1" stop-color="#4d26f4"/></linearGradient><path d="M0 663.7s32-138.7 138.7-108c106.7 30.7 186.7 10.7 160-62.7-26.7-73.3-14.7-117.3 58.6-108s137.3-38.7 112-101.3C444 221 476 177 528 197s152-8 116-72 9.3-104 48-101.3S754.7 0 754.7 0H1920v969h-225.3s73.3-98.7 21.3-105.3c-52-6.7-61.3-60-30.7-73.3 30.7-13.3 17.3-118.7-50.7-92-68 26.7-138.7 38.7-165.3-8-26.7-46.7-98.7-9.3-92 29.3 6.7 38.7-5.3 66.7-49.3 32s-134.7-41.3-128 14.7-5.3 84-68 56-145.3 25.3-126.7 73.3c18.7 48-72 73.3-72 73.3H0V663.7z" fill="url(#a)"/></svg>